<svg width="70" height="68" viewBox="0 0 70 68" fill="none" xmlns="http://www.w3.org/2000/svg">
<path d="M32.7077 0.018299C32.5572 0.0315913 32.0782 0.0781143 31.6471 0.111345C21.7048 0.981989 12.392 6.19256 6.49365 14.2012C3.20919 18.6541 1.1085 23.7051 0.314761 29.0553C0.0342131 30.9228 0 31.4745 0 34.0067C0 36.5388 0.0342131 37.0905 0.314761 38.958C2.21701 51.7253 11.5709 62.4521 24.2571 66.4265C26.5288 67.1377 28.9238 67.6228 31.6471 67.9153C32.7077 68.0283 37.2923 68.0283 38.3529 67.9153C43.0538 67.4102 47.0362 66.2803 50.9638 64.333C51.566 64.0339 51.6823 63.9542 51.6002 63.8877C51.5455 63.8478 48.9795 60.5048 45.9003 56.464L40.303 49.12L33.2893 39.0378C29.4301 33.4949 26.2551 28.9622 26.2278 28.9622C26.2004 28.9556 26.173 33.4351 26.1593 38.9049C26.1388 48.482 26.132 48.8674 26.0088 49.0934C25.8309 49.4191 25.694 49.552 25.4066 49.6982C25.1877 49.8045 24.9961 49.8245 23.9629 49.8245H22.7791L22.4643 49.6317C22.259 49.5055 22.1085 49.3393 22.0059 49.1466L21.8622 48.8475L21.8759 35.522L21.8964 22.1898L22.1085 21.9306C22.218 21.7911 22.4506 21.6116 22.6149 21.5252C22.8954 21.3923 23.0049 21.379 24.1887 21.379C25.5846 21.379 25.8172 21.4322 26.1799 21.8176C26.2825 21.924 30.0802 27.4802 34.6237 34.1728C39.1672 40.8655 45.3803 50.0039 48.4321 54.4901L53.9746 62.6449L54.2551 62.4654C56.739 60.8969 59.3666 58.6638 61.4467 56.3377C65.8739 51.3996 68.7273 45.3782 69.6852 38.958C69.9658 37.0905 70 36.5388 70 34.0067C70 31.4745 69.9658 30.9228 69.6852 29.0553C67.783 16.288 58.4291 5.56118 45.7429 1.58679C43.5054 0.882297 41.1241 0.397129 38.4555 0.104699C37.7986 0.0382375 33.2757 -0.0348701 32.7077 0.018299ZM47.0362 20.5815C47.3646 20.741 47.6315 21.0467 47.7273 21.3657C47.782 21.5385 47.7957 25.2338 47.782 33.5614L47.7615 45.5111L45.5924 42.2811L43.4164 39.0511V30.3646C43.4164 24.7486 43.4438 21.5917 43.4848 21.4388C43.5943 21.0666 43.8338 20.7742 44.1623 20.6014C44.4428 20.4618 44.5455 20.4485 45.6197 20.4485C46.6325 20.4485 46.8104 20.4618 47.0362 20.5815Z" fill="black"/>
</svg>
