<svg xmlns="http://www.w3.org/2000/svg" version="1.1" xmlns:xlink="http://www.w3.org/1999/xlink" xmlns:svgjs="http://svgjs.dev/svgjs" width="1500" height="1871" viewBox="0 0 1500 1871"><g transform="matrix(1,0,0,1,0.4005085823267791,0.7574898785425148)"><svg viewBox="0 0 198 247" data-background-color="#131313" preserveAspectRatio="xMidYMid meet" height="1871" width="1500" xmlns="http://www.w3.org/2000/svg" xmlns:xlink="http://www.w3.org/1999/xlink"><g id="tight-bounds" transform="matrix(1,0,0,1,-0.05286713286713507,-0.09999999999999432)"><svg viewBox="0 0 198.10573426573427 247.2" height="247.2" width="198.10573426573427"><g><svg viewBox="0 0 198.10573426573427 247.2" height="247.2" width="198.10573426573427"><g><svg viewBox="0 0 198.10573426573427 247.2" height="247.2" width="198.10573426573427"><g id="textblocktransform"><svg viewBox="0 0 198.10573426573427 247.2" height="247.2" width="198.10573426573427" id="textblock"><g><svg viewBox="0 0 198.10573426573427 247.2" height="247.2" width="198.10573426573427"><g transform="matrix(1,0,0,1,0,0)"><svg width="198.10573426573427" viewBox="2.85 -35.5 28.65 35.75" height="247.2" data-palette-color="#cac9c7"><path d="M10.35 0.25L10.35 0.25 10.1-2.2 16.3-3.35 14.35-1.4Q14.45-1.85 14.6-2.93 14.75-4 14.9-5.13 15.05-6.25 15.05-6.75L15.05-6.75 15.05-28.5Q15.05-29.05 14.9-30.13 14.75-31.2 14.6-32.3 14.45-33.4 14.35-33.9L14.35-33.9 19.85-33.9Q19.8-33.5 19.68-32.35 19.55-31.2 19.45-29.75 19.35-28.3 19.35-27L19.35-27 19.35-8.25Q19.35-6.95 19.45-5.63 19.55-4.3 19.68-3.18 19.8-2.05 19.9-1.4L19.9-1.4 18-3.15 24.75-2.65 24.4 0 17.5 0Q16.95 0 15.7 0.05 14.45 0.1 13 0.15 11.55 0.2 10.35 0.25ZM5.75-26.2L5.75-26.2 2.85-26.45 3.2-34.6 4.15-35.5Q5.1-35.45 6.25-35.4 7.4-35.35 8.4-35.3 9.4-35.25 9.85-35.25L9.85-35.25 24.5-35.25Q24.95-35.25 25.93-35.3 26.9-35.35 28.08-35.4 29.25-35.45 30.2-35.5L30.2-35.5 31.15-34.6 31.5-26.45 28.65-26.2Q28.6-26.9 28.48-27.75 28.35-28.6 28.23-29.35 28.1-30.1 27.95-30.45L27.95-30.45 26.25-33.85 28.3-32.25Q27.55-32.35 25.93-32.45 24.3-32.55 23-32.55L23-32.55 11.35-32.55Q10.5-32.55 9.45-32.48 8.4-32.4 7.48-32.35 6.55-32.3 6-32.25L6-32.25 8.1-33.85 6.4-30.45Q6.25-29.9 6.05-28.55 5.85-27.2 5.75-26.2Z" opacity="1" transform="matrix(1,0,0,1,0,0)" fill="#cac9c7" class="wordmark-text-0" data-fill-palette-color="primary" id="text-0"></path></svg></g></svg></g></svg></g></svg></g></svg></g><defs></defs></svg><rect width="198.10573426573427" height="247.2" fill="none" stroke="none" visibility="hidden"></rect></g></svg></g></svg>